<mxfile host="app.diagrams.net" modified="2022-06-21T03:46:21.062Z" agent="5.0 (Windows NT 10.0; Win64; x64) AppleWebKit/537.36 (KHTML, like Gecko) Chrome/102.0.5005.124 Safari/537.36 Edg/102.0.1245.44" etag="YXeh35LIjDbnbOeu8Lyc" version="20.0.1" type="github">
  <diagram id="8UQghiAkSNZsVzccjgBl" name="第 1 页">
    <mxGraphModel dx="979" dy="550" grid="1" gridSize="10" guides="1" tooltips="1" connect="1" arrows="1" fold="1" page="1" pageScale="1" pageWidth="827" pageHeight="1169" background="#F4F1DE" math="0" shadow="0">
      <root>
        <mxCell id="0" />
        <mxCell id="1" parent="0" />
      </root>
    </mxGraphModel>
  </diagram>
</mxfile>
